<?xml version="1.0" standalone="no"?>
<!DOCTYPE svg PUBLIC "-//W3C//DTD SVG 20010904//EN"
 "http://www.w3.org/TR/2001/REC-SVG-20010904/DTD/svg10.dtd">
<svg version="1.0" xmlns="http://www.w3.org/2000/svg"
 width="388.000000pt" height="388.000000pt" viewBox="0 0 388.000000 388.000000"
 preserveAspectRatio="xMidYMid meet">
<metadata>
Created by potrace 1.14, written by Peter Selinger 2001-2017
</metadata>
<g transform="translate(0.000000,388.000000) scale(0.100000,-0.100000)"
fill="#000000" stroke="none">
<path d="M2390 3675 c-74 -75 -136 -137 -137 -138 -1 -1 241 -2 538 -2 l539 0
0 138 0 137 -403 0 -403 0 -134 -135z"/>
<path d="M3333 3523 c-3 -7 -6 -379 -8 -826 -1 -446 -5 -831 -9 -855 -31 -191
-123 -375 -250 -496 -75 -71 -230 -160 -316 -182 -8 -2 -42 -10 -75 -19 -124
-31 -315 -35 -445 -10 -66 13 -120 28 -120 33 0 4 23 20 50 37 106 62 226 203
299 351 161 324 133 745 -70 1041 -90 131 -259 264 -407 322 -172 66 -152 64
-970 68 l-742 4 0 -1466 0 -1466 147 3 148 3 0 482 c-1 266 2 484 5 484 3 1
264 2 580 3 l575 2 65 -38 c116 -68 301 -129 441 -145 82 -10 305 -10 389 0
332 36 632 212 805 472 82 123 152 294 170 416 4 24 10 64 15 89 5 25 9 419
10 876 l1 831 -142 0 c-109 0 -142 -3 -146 -14z m-1608 -823 c28 -6 61 -14 74
-16 13 -3 62 -23 108 -45 119 -57 215 -154 277 -281 58 -117 76 -187 81 -313
11 -251 -86 -467 -272 -606 -62 -47 -135 -81 -223 -105 -57 -16 -118 -18 -498
-20 l-433 -2 -136 -136 c-74 -75 -136 -136 -137 -136 -6 0 -1 1666 5 1670 4 3
254 4 556 4 391 -1 562 -5 598 -14z"/>
<path d="M1308 2012 c-55 -2 -76 -6 -73 -15 2 -7 6 -52 10 -102 7 -108 27
-207 59 -302 40 -118 22 -108 201 -107 86 1 158 3 160 5 2 2 -16 43 -39 90
-41 84 -73 192 -83 274 -2 22 -6 49 -8 60 -2 11 -4 38 -4 60 l-1 40 -72 0
c-40 0 -108 -1 -150 -3z"/>
</g>
</svg>
