<?xml version="1.0" standalone="no"?>
<!DOCTYPE svg PUBLIC "-//W3C//DTD SVG 20010904//EN"
 "http://www.w3.org/TR/2001/REC-SVG-20010904/DTD/svg10.dtd">
<svg version="1.0" xmlns="http://www.w3.org/2000/svg"
 width="512.000000pt" height="512.000000pt" viewBox="0 0 512.000000 512.000000"
 preserveAspectRatio="xMidYMid meet">
<metadata>
Created by potrace 1.14, written by Peter Selinger 2001-2017
</metadata>
<g transform="translate(0.000000,512.000000) scale(0.100000,-0.100000)"
fill="#000000" stroke="none">
<path d="M2315 5109 c-719 -74 -1370 -440 -1799 -1009 -505 -670 -649 -1543
-386 -2340 127 -386 323 -705 613 -999 408 -412 904 -658 1502 -743 118 -17
512 -17 630 0 598 85 1095 331 1502 743 405 410 641 893 725 1484 17 118 17
512 0 630 -97 678 -410 1243 -927 1671 -344 284 -783 476 -1255 549 -126 19
-477 28 -605 14z m1845 -719 l0 -140 150 0 151 0 -3 -907 c-4 -999 -1 -956
-68 -1154 -169 -505 -645 -802 -1245 -776 -222 9 -400 56 -588 154 l-92 48
-607 -3 -608 -4 0 -509 0 -509 -155 0 -155 0 0 1540 0 1541 783 -4 c708 -3
789 -5 857 -21 375 -89 641 -353 741 -734 27 -101 37 -331 19 -439 -23 -148
-92 -324 -173 -443 -46 -67 -154 -176 -225 -228 -45 -31 -60 -47 -50 -52 7 -5
49 -16 93 -26 116 -27 346 -25 472 4 326 75 557 283 649 586 43 142 44 171 44
1069 l0 857 -560 0 c-308 0 -560 3 -560 7 0 4 62 70 137 145 l138 138 427 0
428 0 0 -140z"/>
<path d="M1250 2498 l0 -883 148 148 147 147 436 0 c269 0 458 4 495 11 138
25 284 106 379 212 146 160 215 429 171 659 -31 158 -91 279 -191 382 -76 78
-155 126 -276 168 l-94 33 -607 3 -608 3 0 -883z m1020 88 c0 -121 45 -298
109 -423 17 -34 31 -65 31 -68 0 -3 -77 -5 -170 -5 l-171 0 -20 48 c-47 109
-89 321 -89 449 l0 53 155 0 155 0 0 -54z"/>
</g>
</svg>
