<svg id="visual" viewBox="0 0 900 600" width="900" height="600" xmlns="http://www.w3.org/2000/svg" xmlns:xlink="http://www.w3.org/1999/xlink" version="1.1"><path d="M0 483L18.8 479C37.7 475 75.3 467 112.8 467.8C150.3 468.7 187.7 478.3 225.2 486.7C262.7 495 300.3 502 337.8 499C375.3 496 412.7 483 450.2 481.3C487.7 479.7 525.3 489.3 562.8 492.3C600.3 495.3 637.7 491.7 675.2 491.8C712.7 492 750.3 496 787.8 491.7C825.3 487.3 862.7 474.7 881.3 468.3L900 462L900 601L881.3 601C862.7 601 825.3 601 787.8 601C750.3 601 712.7 601 675.2 601C637.7 601 600.3 601 562.8 601C525.3 601 487.7 601 450.2 601C412.7 601 375.3 601 337.8 601C300.3 601 262.7 601 225.2 601C187.7 601 150.3 601 112.8 601C75.3 601 37.7 601 18.8 601L0 601Z" fill="#5917b2"></path><path d="M0 507L18.8 507.7C37.7 508.3 75.3 509.7 112.8 514.5C150.3 519.3 187.7 527.7 225.2 523.5C262.7 519.3 300.3 502.7 337.8 497.8C375.3 493 412.7 500 450.2 507.8C487.7 515.7 525.3 524.3 562.8 523.7C600.3 523 637.7 513 675.2 511.2C712.7 509.3 750.3 515.7 787.8 520.5C825.3 525.3 862.7 528.7 881.3 530.3L900 532L900 601L881.3 601C862.7 601 825.3 601 787.8 601C750.3 601 712.7 601 675.2 601C637.7 601 600.3 601 562.8 601C525.3 601 487.7 601 450.2 601C412.7 601 375.3 601 337.8 601C300.3 601 262.7 601 225.2 601C187.7 601 150.3 601 112.8 601C75.3 601 37.7 601 18.8 601L0 601Z" fill="#5416a6"></path><path d="M0 545L18.8 542.7C37.7 540.3 75.3 535.7 112.8 533.7C150.3 531.7 187.7 532.3 225.2 532.5C262.7 532.7 300.3 532.3 337.8 532C375.3 531.7 412.7 531.3 450.2 532C487.7 532.7 525.3 534.3 562.8 534.2C600.3 534 637.7 532 675.2 529.7C712.7 527.3 750.3 524.7 787.8 528.5C825.3 532.3 862.7 542.7 881.3 547.8L900 553L900 601L881.3 601C862.7 601 825.3 601 787.8 601C750.3 601 712.7 601 675.2 601C637.7 601 600.3 601 562.8 601C525.3 601 487.7 601 450.2 601C412.7 601 375.3 601 337.8 601C300.3 601 262.7 601 225.2 601C187.7 601 150.3 601 112.8 601C75.3 601 37.7 601 18.8 601L0 601Z" fill="#4f159a"></path><path d="M0 577L18.8 573.2C37.7 569.3 75.3 561.7 112.8 560.8C150.3 560 187.7 566 225.2 565C262.7 564 300.3 556 337.8 555.5C375.3 555 412.7 562 450.2 566.3C487.7 570.7 525.3 572.3 562.8 568.7C600.3 565 637.7 556 675.2 554.5C712.7 553 750.3 559 787.8 562.5C825.3 566 862.7 567 881.3 567.5L900 568L900 601L881.3 601C862.7 601 825.3 601 787.8 601C750.3 601 712.7 601 675.2 601C637.7 601 600.3 601 562.8 601C525.3 601 487.7 601 450.2 601C412.7 601 375.3 601 337.8 601C300.3 601 262.7 601 225.2 601C187.7 601 150.3 601 112.8 601C75.3 601 37.7 601 18.8 601L0 601Z" fill="#4a148f"></path></svg>