<?xml version="1.0" encoding="UTF-8" standalone="no"?>
<!-- Created with Inkscape (http://www.inkscape.org/) -->

<svg
   version="1.1"
   id="svg2"
   width="2666.6667"
   height="2666.6667"
   viewBox="0 0 2666.6667 2666.6667"
   sodipodi:docname="Logo.ai"
   xmlns:inkscape="http://www.inkscape.org/namespaces/inkscape"
   xmlns:sodipodi="http://sodipodi.sourceforge.net/DTD/sodipodi-0.dtd"
   xmlns="http://www.w3.org/2000/svg"
   xmlns:svg="http://www.w3.org/2000/svg">
  <defs
     id="defs6">
    <clipPath
       clipPathUnits="userSpaceOnUse"
       id="clipPath16">
      <path
         d="M 0,2000 H 2000 V 0 H 0 Z"
         id="path14" />
    </clipPath>
  </defs>
  <sodipodi:namedview
     id="namedview4"
     pagecolor="#ffffff"
     bordercolor="#000000"
     borderopacity="0.25"
     inkscape:showpageshadow="2"
     inkscape:pageopacity="0.0"
     inkscape:pagecheckerboard="0"
     inkscape:deskcolor="#d1d1d1" />
  <g
     id="g8"
     inkscape:groupmode="layer"
     inkscape:label="Logo"
     transform="matrix(1.3333333,0,0,-1.3333333,0,2666.6667)">
    <g
       id="g10">
      <g
         id="g12"
         clip-path="url(#clipPath16)">
        <g
           id="g18"
           transform="translate(805.3685,760.8555)">
          <path
             d="M 0,0 C 17.059,0 33.497,1.235 49.006,3.408 0.619,78.777 -26.366,172.76 -26.366,281.01 h -156.326 c 0,-105.145 20.16,-199.438 57.071,-281.01 z"
             style="fill:#ffffff;fill-opacity:1;fill-rule:nonzero;stroke:none"
             id="path20" />
        </g>
        <g
           id="g22"
           transform="translate(1737.1403,1854.824)">
          <path
             d="M 0,0 V 145.176 H -429.258 L -574.13,-0.01 H -0.017 v -808.602 c 0,-303.659 -196.65,-482.319 -480.145,-482.319 -16.44,0 -32.259,0.621 -48.078,1.863 -44.354,3.408 -86.535,11.783 -125.307,24.505 403.534,234.181 310.789,973.005 -278.225,973.005 h -698.817 v -1563.266 h 156.325 v 520.159 895.775 h 542.492 c 446.336,0 485.418,-623.137 116.934,-732.008 -17.525,-5.27 -36.057,-9.303 -55.558,-12.018 -19.502,-2.71 -39.974,-4.104 -61.376,-4.104 h -73.202 v 0 h -321.96 l -147.332,-147.641 h 542.492 c 25.124,0 49.006,1.548 72.269,4.342 40.632,-27.292 84.988,-49.941 133.065,-66.684 74.75,-27.299 157.565,-41.255 246.276,-41.255 372.825,0 636.471,238.83 636.471,629.65 L 156.309,0 Z"
             style="fill:#ffffff;fill-opacity:1;fill-rule:nonzero;stroke:none"
             id="path24" />
        </g>
      </g>
    </g>
  </g>
</svg>
