<?xml version="1.0" encoding="UTF-8" standalone="no"?><!DOCTYPE svg PUBLIC "-//W3C//DTD SVG 1.1//EN" "http://www.w3.org/Graphics/SVG/1.1/DTD/svg11.dtd"><svg width="100%" height="100%" viewBox="0 0 8334 8334" version="1.1" xmlns="http://www.w3.org/2000/svg" xmlns:xlink="http://www.w3.org/1999/xlink" xml:space="preserve" xmlns:serif="http://www.serif.com/" style="fill-rule:evenodd;clip-rule:evenodd;stroke-linejoin:round;stroke-miterlimit:2;"><g id="Layer-1" serif:id="Layer 1"><path d="M3355.7,5163.1c71.079,0 139.571,-5.146 204.192,-14.2c-201.613,-314.037 -314.05,-705.633 -314.05,-1156.67l-651.359,0c0,438.104 84,830.992 237.796,1170.88l523.421,0Z" style="fill:#f3f3f3;fill-rule:nonzero;"/><path d="M7238.09,604.9l-0,-604.9l-1788.58,0l-603.634,604.942l2392.14,-0l-0,3369.18c-0,1265.25 -819.375,2009.66 -2000.6,2009.66c-68.5,0 -134.413,-2.587 -200.325,-7.762c-184.809,-14.2 -360.563,-49.096 -522.113,-102.105c1681.39,-975.754 1294.95,-4054.19 -1159.27,-4054.19l-2911.74,0l-0,6513.61l651.354,0l-0,-5899.73l2260.38,0c1859.73,0 2022.58,2596.4 487.225,3050.03c-73.021,21.958 -150.237,38.762 -231.491,50.075c-81.259,11.291 -166.559,17.1 -255.734,17.1l-305.008,-0l0.008,0.016l-1341.5,0l-613.883,615.171l2260.38,0c104.684,0 204.192,-6.45 301.121,-18.092c169.3,113.717 354.117,208.088 554.438,277.85c311.458,113.746 656.52,171.896 1026.15,171.896c1553.44,0 2651.96,-995.125 2651.96,-2623.54l0,-3369.22l-651.287,-0Z" style="fill:#f3f3f3;fill-rule:nonzero;"/></g></svg>